<?xml version="1.0" encoding="UTF-8" standalone="no"?>
<!DOCTYPE svg PUBLIC "-//W3C//DTD SVG 1.1//EN" "http://www.w3.org/Graphics/SVG/1.1/DTD/svg11.dtd">
<svg width="100%" height="100%" viewBox="0 0 494 432" version="1.1" xmlns="http://www.w3.org/2000/svg" xmlns:xlink="http://www.w3.org/1999/xlink" xml:space="preserve" xmlns:serif="http://www.serif.com/" style="fill-rule:evenodd;clip-rule:evenodd;stroke-linejoin:round;stroke-miterlimit:2;">
    <g transform="matrix(1.23282,0,0,1.23282,-208.391,-547.119)">
        <g transform="matrix(1.16,0,0,1,-24.9731,0)">
            <g transform="matrix(174.67,0,0,174.67,156.082,570.954)">
                <path d="M0.399,-0.21L0.338,0.198L0.241,0.198L0.182,-0.202L0.182,0.198L0.06,0.198L0.06,-0.715L0.182,-0.715L0.291,-0.21L0.398,-0.715L0.523,-0.715L0.523,0.198L0.399,0.198L0.399,-0.21Z" style="fill:rgb(230,230,230);fill-rule:nonzero;"/>
            </g>
            <g transform="matrix(174.67,0,0,174.67,258.963,570.954)">
                <path d="M0.397,0.078C0.397,0.115 0.381,0.147 0.348,0.173C0.316,0.199 0.277,0.212 0.231,0.212C0.185,0.212 0.146,0.199 0.113,0.173C0.081,0.147 0.065,0.115 0.065,0.078L0.065,-0.594C0.065,-0.631 0.081,-0.663 0.113,-0.689C0.146,-0.715 0.185,-0.728 0.231,-0.728C0.277,-0.728 0.316,-0.715 0.348,-0.689C0.381,-0.663 0.397,-0.631 0.397,-0.594L0.397,0.078ZM0.272,-0.606C0.272,-0.615 0.268,-0.623 0.26,-0.629C0.253,-0.636 0.243,-0.639 0.231,-0.639C0.219,-0.639 0.209,-0.636 0.202,-0.629C0.194,-0.623 0.19,-0.615 0.19,-0.606L0.19,0.09C0.19,0.099 0.194,0.107 0.202,0.113C0.211,0.12 0.22,0.123 0.231,0.123C0.242,0.123 0.251,0.12 0.26,0.113C0.268,0.107 0.272,0.099 0.272,0.09L0.272,-0.606Z" style="fill:rgb(230,230,230);fill-rule:nonzero;"/>
            </g>
            <g transform="matrix(174.67,0,0,174.67,337.215,570.954)">
                <path d="M0.203,-0.259L0.265,-0.716L0.388,-0.716L0.265,0.198L0.142,0.198L0.019,-0.716L0.142,-0.716L0.203,-0.259Z" style="fill:rgb(230,230,230);fill-rule:nonzero;"/>
            </g>
            <g transform="matrix(174.67,0,0,174.67,409.354,570.954)">
                <rect x="0.075" y="-0.716" width="0.123" height="0.914" style="fill:rgb(230,230,230);fill-rule:nonzero;"/>
            </g>
            <g transform="matrix(174.67,0,0,174.67,458.087,570.954)">
                <path d="M0.305,0.198L0.06,0.198L0.06,-0.716L0.305,-0.716L0.305,-0.616L0.183,-0.616L0.183,-0.308L0.264,-0.308L0.264,-0.208L0.183,-0.208L0.183,0.099L0.305,0.099L0.305,0.198Z" style="fill:rgb(230,230,230);fill-rule:nonzero;"/>
            </g>
        </g>
        <g transform="matrix(1.2,0,0,1,-31.2164,0)">
            <g transform="matrix(174.67,0,0,174.67,156.082,756.98)">
                <path d="M0.392,-0.716L0.392,0.198L0.269,0.198L0.188,-0.203L0.188,0.198L0.065,0.198L0.065,-0.716L0.188,-0.716L0.269,-0.32L0.269,-0.716L0.392,-0.716Z" style="fill:rgb(230,230,230);fill-rule:nonzero;"/>
            </g>
            <g transform="matrix(174.67,0,0,174.67,236.954,756.98)">
                <rect x="0.075" y="-0.716" width="0.123" height="0.914" style="fill:rgb(230,230,230);fill-rule:nonzero;"/>
            </g>
            <g transform="matrix(174.67,0,0,174.67,285.688,756.98)">
                <path d="M0.114,0.174C0.081,0.148 0.065,0.116 0.065,0.079L0.065,-0.593C0.065,-0.63 0.081,-0.662 0.114,-0.688C0.146,-0.714 0.185,-0.727 0.231,-0.727C0.277,-0.727 0.316,-0.714 0.348,-0.688C0.381,-0.662 0.397,-0.63 0.397,-0.593L0.397,-0.354L0.272,-0.354L0.272,-0.605C0.272,-0.614 0.268,-0.622 0.26,-0.628C0.253,-0.635 0.243,-0.638 0.231,-0.638C0.219,-0.638 0.209,-0.635 0.202,-0.628C0.194,-0.622 0.19,-0.614 0.19,-0.605L0.19,0.091C0.19,0.1 0.194,0.108 0.202,0.114C0.211,0.121 0.22,0.124 0.231,0.124C0.242,0.124 0.251,0.121 0.26,0.114C0.268,0.108 0.272,0.1 0.272,0.091L0.272,-0.208L0.254,-0.208L0.254,-0.307L0.397,-0.308L0.397,0.079C0.397,0.116 0.381,0.148 0.348,0.174C0.316,0.2 0.277,0.213 0.231,0.213C0.185,0.213 0.146,0.2 0.114,0.174Z" style="fill:rgb(230,230,230);fill-rule:nonzero;"/>
            </g>
            <g transform="matrix(174.67,0,0,174.67,367.433,756.98)">
                <path d="M0.168,-0.21L0.168,0.198L0.045,0.198L0.045,-0.716L0.168,-0.716L0.168,-0.309L0.256,-0.309L0.256,-0.716L0.379,-0.716L0.379,0.198L0.256,0.198L0.256,-0.21L0.168,-0.21Z" style="fill:rgb(230,230,230);fill-rule:nonzero;"/>
            </g>
            <g transform="matrix(174.67,0,0,174.67,443.415,756.98)">
                <path d="M0.243,0.198L0.12,0.198L0.12,-0.617L0.038,-0.617L0.038,-0.716L0.325,-0.716L0.325,-0.617L0.243,-0.617L0.243,0.198Z" style="fill:rgb(230,230,230);fill-rule:nonzero;"/>
            </g>
        </g>
    </g>
</svg>
